<svg xmlns="http://www.w3.org/2000/svg" xmlns:xlink="http://www.w3.org/1999/xlink" width="1000" zoomAndPan="magnify" viewBox="0 0 750 374.999991" height="500" preserveAspectRatio="xMidYMid meet" version="1.0"><defs><g/><clipPath id="afab3f0c28"><path d="M 97.8125 119.550781 L 652.292969 119.550781 L 652.292969 254.734375 L 97.8125 254.734375 Z M 97.8125 119.550781 " clip-rule="nonzero"/></clipPath><clipPath id="dc70a0043f"><path d="M 100.8125 119.550781 L 649.1875 119.550781 C 650.84375 119.550781 652.1875 120.890625 652.1875 122.550781 L 652.1875 251.734375 C 652.1875 253.394531 650.84375 254.734375 649.1875 254.734375 L 100.8125 254.734375 C 99.15625 254.734375 97.8125 253.394531 97.8125 251.734375 L 97.8125 122.550781 C 97.8125 120.890625 99.15625 119.550781 100.8125 119.550781 Z M 100.8125 119.550781 " clip-rule="nonzero"/></clipPath><clipPath id="31132d5fcd"><path d="M 97.8125 119.550781 L 652.082031 119.550781 L 652.082031 254.734375 L 97.8125 254.734375 Z M 97.8125 119.550781 " clip-rule="nonzero"/></clipPath><clipPath id="e7154656cf"><path d="M 100.8125 119.550781 L 649.179688 119.550781 C 650.835938 119.550781 652.179688 120.894531 652.179688 122.550781 L 652.179688 251.734375 C 652.179688 253.390625 650.835938 254.734375 649.179688 254.734375 L 100.8125 254.734375 C 99.15625 254.734375 97.8125 253.390625 97.8125 251.734375 L 97.8125 122.550781 C 97.8125 120.894531 99.15625 119.550781 100.8125 119.550781 Z M 100.8125 119.550781 " clip-rule="nonzero"/></clipPath></defs><g clip-path="url(#afab3f0c28)"><g clip-path="url(#dc70a0043f)"><path fill="#1d724b" d="M 97.8125 119.550781 L 652.292969 119.550781 L 652.292969 254.734375 L 97.8125 254.734375 Z M 97.8125 119.550781 " fill-opacity="1" fill-rule="nonzero"/></g></g><g clip-path="url(#31132d5fcd)"><g clip-path="url(#e7154656cf)"><path stroke-linecap="butt" transform="matrix(0.901246, 0, 0, 0.901246, 97.814381, 119.549728)" fill="none" stroke-linejoin="miter" d="M 3.326637 0.00116849 L 611.780997 0.00116849 C 613.61873 0.00116849 615.109721 1.49216 615.109721 3.329893 L 615.109721 146.66874 C 615.109721 148.506474 613.61873 149.997465 611.780997 149.997465 L 3.326637 149.997465 C 1.488904 149.997465 -0.00208708 148.506474 -0.00208708 146.66874 L -0.00208708 3.329893 C -0.00208708 1.49216 1.488904 0.00116849 3.326637 0.00116849 Z M 3.326637 0.00116849 " stroke="#ffc153" stroke-width="1.664362" stroke-opacity="1" stroke-miterlimit="4"/></g></g><path stroke-linecap="butt" transform="matrix(0.901246, 0, 0, 0.901246, 120.616211, 98.727231)" fill="none" stroke-linejoin="miter" d="M 66.181147 40.867148 C 64.490779 40.867148 63.489561 41.729669 63.073471 43.420037 L 47.366054 113.847691 L 31.693311 43.420037 C 31.242547 41.729669 30.276003 40.867148 28.550961 40.867148 L 9.909239 40.867148 C 8.0455 40.867148 7.078957 41.868366 7.078957 43.697431 L 7.078957 151.170143 C 7.078957 152.999208 8.0455 154.000425 9.909239 154.000425 L 22.925071 154.000425 C 24.754135 154.000425 25.720679 152.999208 25.720679 151.170143 L 25.720679 87.542969 L 26.721897 87.542969 L 40.738946 151.443202 C 41.150702 153.137904 42.15192 154.000425 43.846622 154.000425 L 50.751124 154.000425 C 52.476166 154.000425 53.442709 153.137904 53.893474 151.443202 L 67.875849 87.542969 L 68.877067 87.542969 L 68.877067 151.170143 C 68.877067 152.999208 69.84361 154.000425 71.707349 154.000425 L 84.861877 154.000425 C 86.690942 154.000425 87.69216 152.999208 87.69216 151.170143 L 87.69216 43.697431 C 87.69216 41.868366 86.690942 40.867148 84.861877 40.867148 Z M 169.969725 154.000425 C 171.660092 154.000425 172.249554 153.137904 171.937486 151.581899 L 148.463046 42.869584 C 148.185652 41.452276 147.357806 40.867148 146.079194 40.867148 L 126.436255 40.867148 C 125.157643 40.867148 124.295122 41.452276 124.017728 42.869584 L 100.543289 151.581899 C 100.127198 153.137904 100.816348 154.000425 102.372353 154.000425 L 117.494643 154.000425 C 118.76892 154.000425 119.497078 153.311275 119.770138 152.032664 L 123.605972 131.388506 L 148.77078 131.388506 L 152.706303 152.032664 C 153.01837 153.311275 153.70752 154.000425 154.986132 154.000425 Z M 145.216673 114.987605 L 127.125404 114.987605 L 136.171039 65.6202 Z M 184.684592 151.720596 C 184.684592 153.137904 185.512439 154.000425 186.929747 154.000425 L 201.635946 154.000425 C 203.187617 154.000425 203.911441 153.137904 203.911441 151.720596 L 203.911441 116.092846 L 220.862796 116.092846 C 234.156021 116.092846 241.233894 108.876276 241.233894 95.721748 L 241.233894 61.233912 C 241.233894 47.940687 234.156021 40.867148 220.862796 40.867148 L 186.929747 40.867148 C 185.512439 40.867148 184.684592 41.729669 184.684592 43.142643 Z M 203.911441 97.451124 L 203.911441 59.543544 L 216.342146 59.543544 C 220.173646 59.543544 222.00271 61.511306 222.00271 65.204109 L 222.00271 91.786225 C 222.00271 95.309991 220.173646 97.451124 216.342146 97.451124 Z M 290.739996 133.629327 C 290.739996 146.922552 297.817869 154.000425 311.10676 154.000425 L 326.9182 154.000425 C 340.211425 154.000425 347.289298 146.922552 347.289298 133.629327 L 347.289298 61.233912 C 347.289298 47.940687 340.211425 40.867148 326.9182 40.867148 L 311.10676 40.867148 C 297.817869 40.867148 290.739996 47.940687 290.739996 61.233912 Z M 315.18098 135.77046 C 311.522851 135.77046 309.555089 133.906721 309.555089 130.109895 L 309.555089 64.757679 C 309.555089 61.095215 311.522851 59.127454 315.18098 59.127454 L 323.398767 59.127454 C 327.056896 59.127454 329.059332 61.095215 329.059332 64.757679 L 329.059332 130.109895 C 329.059332 133.906721 327.056896 135.77046 323.398767 135.77046 Z M 417.990011 43.142643 C 417.990011 41.729669 417.162164 40.867148 415.74919 40.867148 L 363.685865 40.867148 C 362.134194 40.867148 361.440709 41.729669 361.440709 43.142643 L 361.440709 151.720596 C 361.440709 153.137904 362.134194 154.000425 363.685865 154.000425 L 378.392064 154.000425 C 379.809372 154.000425 380.671893 153.137904 380.671893 151.720596 L 380.671893 106.631121 L 407.254009 106.631121 C 408.671317 106.631121 409.499164 105.907297 409.499164 104.355626 L 409.499164 90.234554 C 409.499164 88.817246 408.671317 87.954725 407.254009 87.954725 L 380.671893 87.954725 L 380.671893 59.543544 L 415.74919 59.543544 C 417.162164 59.543544 417.990011 58.681023 417.990011 57.263715 Z M 467.496114 151.720596 C 467.496114 153.137904 468.32396 154.000425 469.741269 154.000425 L 484.447468 154.000425 C 485.999139 154.000425 486.727297 153.137904 486.727297 151.720596 L 486.727297 116.092846 L 503.678651 116.092846 C 516.967542 116.092846 524.045415 108.876276 524.045415 95.721748 L 524.045415 61.233912 C 524.045415 47.940687 516.967542 40.867148 503.678651 40.867148 L 469.741269 40.867148 C 468.32396 40.867148 467.496114 41.729669 467.496114 43.142643 Z M 486.727297 97.451124 L 486.727297 59.543544 L 499.153667 59.543544 C 502.985167 59.543544 504.818566 61.511306 504.818566 65.204109 L 504.818566 91.786225 C 504.818566 95.309991 502.985167 97.451124 499.153667 97.451124 Z M 540.441982 40.867148 C 538.890311 40.867148 538.201161 41.729669 538.201161 43.142643 L 538.201161 151.720596 C 538.201161 153.137904 538.890311 154.000425 540.441982 154.000425 L 555.152515 154.000425 C 556.565489 154.000425 557.42801 153.137904 557.42801 151.720596 L 557.42801 43.142643 C 557.42801 41.729669 556.565489 40.867148 555.152515 40.867148 Z M 540.441982 40.867148 " stroke="#5d8048" stroke-width="6.186687" stroke-opacity="1" stroke-miterlimit="4"/><g fill="#ffc153" fill-opacity="1"><g transform="translate(120.616211, 237.519148)"><g><path d="M 59.644531 -101.957031 C 58.113281 -101.957031 57.222656 -101.191406 56.839844 -99.664062 L 42.695312 -36.195312 L 28.546875 -99.664062 C 28.164062 -101.191406 27.273438 -101.957031 25.742188 -101.957031 L 8.921875 -101.957031 C 7.265625 -101.957031 6.371094 -101.0625 6.371094 -99.40625 L 6.371094 -2.550781 C 6.371094 -0.890625 7.265625 0 8.921875 0 L 20.644531 0 C 22.304688 0 23.195312 -0.890625 23.195312 -2.550781 L 23.195312 -59.898438 L 24.085938 -59.898438 L 36.703125 -2.292969 C 37.085938 -0.765625 37.980469 0 39.507812 0 L 45.753906 0 C 47.28125 0 48.175781 -0.765625 48.554688 -2.292969 L 61.171875 -59.898438 L 62.066406 -59.898438 L 62.066406 -2.550781 C 62.066406 -0.890625 62.957031 0 64.613281 0 L 76.46875 0 C 78.125 0 79.015625 -0.890625 79.015625 -2.550781 L 79.015625 -99.40625 C 79.015625 -101.0625 78.125 -101.957031 76.46875 -101.957031 Z M 59.644531 -101.957031 "/></g></g></g><g fill="#ffc153" fill-opacity="1"><g transform="translate(206.002276, 237.519148)"><g><path d="M 67.800781 0 C 69.332031 0 69.839844 -0.765625 69.585938 -2.167969 L 48.429688 -100.171875 C 48.175781 -101.445312 47.410156 -101.957031 46.261719 -101.957031 L 28.546875 -101.957031 C 27.402344 -101.957031 26.636719 -101.445312 26.382812 -100.171875 L 5.226562 -2.167969 C 4.84375 -0.765625 5.480469 0 6.882812 0 L 20.519531 0 C 21.664062 0 22.304688 -0.636719 22.558594 -1.785156 L 26 -20.390625 L 48.683594 -20.390625 L 52.253906 -1.785156 C 52.507812 -0.636719 53.144531 0 54.292969 0 Z M 45.496094 -35.175781 L 29.183594 -35.175781 L 37.339844 -79.652344 Z M 45.496094 -35.175781 "/></g></g></g><g fill="#ffc153" fill-opacity="1"><g transform="translate(280.683223, 237.519148)"><g><path d="M 6.371094 -2.039062 C 6.371094 -0.765625 7.136719 0 8.410156 0 L 21.664062 0 C 23.066406 0 23.703125 -0.765625 23.703125 -2.039062 L 23.703125 -34.15625 L 39 -34.15625 C 50.976562 -34.15625 57.351562 -40.65625 57.351562 -52.507812 L 57.351562 -83.605469 C 57.351562 -95.582031 50.976562 -101.957031 39 -101.957031 L 8.410156 -101.957031 C 7.136719 -101.957031 6.371094 -101.191406 6.371094 -99.917969 Z M 23.703125 -50.976562 L 23.703125 -85.132812 L 34.921875 -85.132812 C 38.359375 -85.132812 40.019531 -83.347656 40.019531 -80.035156 L 40.019531 -56.074219 C 40.019531 -52.890625 38.359375 -50.976562 34.921875 -50.976562 Z M 23.703125 -50.976562 "/></g></g></g><g fill="#ffc153" fill-opacity="1"><g transform="translate(344.404175, 237.519148)"><g/></g></g><g fill="#ffc153" fill-opacity="1"><g transform="translate(376.264651, 237.519148)"><g><path d="M 6.371094 -18.351562 C 6.371094 -6.371094 12.746094 0 24.722656 0 L 39 0 C 50.976562 0 57.351562 -6.371094 57.351562 -18.351562 L 57.351562 -83.605469 C 57.351562 -95.582031 50.976562 -101.957031 39 -101.957031 L 24.722656 -101.957031 C 12.746094 -101.957031 6.371094 -95.582031 6.371094 -83.605469 Z M 28.421875 -16.441406 C 25.105469 -16.441406 23.324219 -18.097656 23.324219 -21.539062 L 23.324219 -80.417969 C 23.324219 -83.730469 25.105469 -85.515625 28.421875 -85.515625 L 35.8125 -85.515625 C 39.125 -85.515625 40.910156 -83.730469 40.910156 -80.417969 L 40.910156 -21.539062 C 40.910156 -18.097656 39.125 -16.441406 35.8125 -16.441406 Z M 28.421875 -16.441406 "/></g></g></g><g fill="#ffc153" fill-opacity="1"><g transform="translate(439.985602, 237.519148)"><g><path d="M 57.351562 -99.917969 C 57.351562 -101.191406 56.585938 -101.957031 55.3125 -101.957031 L 8.410156 -101.957031 C 7.007812 -101.957031 6.371094 -101.191406 6.371094 -99.917969 L 6.371094 -2.039062 C 6.371094 -0.765625 7.007812 0 8.410156 0 L 21.664062 0 C 22.941406 0 23.703125 -0.765625 23.703125 -2.039062 L 23.703125 -42.695312 L 47.664062 -42.695312 C 48.9375 -42.695312 49.703125 -43.332031 49.703125 -44.734375 L 49.703125 -57.476562 C 49.703125 -58.753906 48.9375 -59.515625 47.664062 -59.515625 L 23.703125 -59.515625 L 23.703125 -85.132812 L 55.3125 -85.132812 C 56.585938 -85.132812 57.351562 -85.898438 57.351562 -87.171875 Z M 57.351562 -99.917969 "/></g></g></g><g fill="#ffc153" fill-opacity="1"><g transform="translate(503.706554, 237.519148)"><g/></g></g><g fill="#ffc153" fill-opacity="1"><g transform="translate(535.567043, 237.519148)"><g><path d="M 6.371094 -2.039062 C 6.371094 -0.765625 7.136719 0 8.410156 0 L 21.664062 0 C 23.066406 0 23.703125 -0.765625 23.703125 -2.039062 L 23.703125 -34.15625 L 39 -34.15625 C 50.976562 -34.15625 57.351562 -40.65625 57.351562 -52.507812 L 57.351562 -83.605469 C 57.351562 -95.582031 50.976562 -101.957031 39 -101.957031 L 8.410156 -101.957031 C 7.136719 -101.957031 6.371094 -101.191406 6.371094 -99.917969 Z M 23.703125 -50.976562 L 23.703125 -85.132812 L 34.921875 -85.132812 C 38.359375 -85.132812 40.019531 -83.347656 40.019531 -80.035156 L 40.019531 -56.074219 C 40.019531 -52.890625 38.359375 -50.976562 34.921875 -50.976562 Z M 23.703125 -50.976562 "/></g></g></g><g fill="#ffc153" fill-opacity="1"><g transform="translate(599.287967, 237.519148)"><g><path d="M 8.410156 -101.957031 C 7.007812 -101.957031 6.371094 -101.191406 6.371094 -99.917969 L 6.371094 -2.039062 C 6.371094 -0.765625 7.007812 0 8.410156 0 L 21.664062 0 C 22.941406 0 23.703125 -0.765625 23.703125 -2.039062 L 23.703125 -99.917969 C 23.703125 -101.191406 22.941406 -101.957031 21.664062 -101.957031 Z M 8.410156 -101.957031 "/></g></g></g></svg>