<svg xmlns="http://www.w3.org/2000/svg" xmlns:xlink="http://www.w3.org/1999/xlink" width="500" zoomAndPan="magnify" viewBox="0 0 375 374.999991" height="500" preserveAspectRatio="xMidYMid meet" version="1.0"><defs><clipPath id="1a55a25a10"><path d="M 98 109.320312 L 276 109.320312 L 276 191 L 98 191 Z M 98 109.320312 " clip-rule="nonzero"/></clipPath><clipPath id="2fd4d65628"><path d="M 14 178.128906 L 360 178.128906 L 360 292.320312 L 14 292.320312 Z M 14 178.128906 " clip-rule="nonzero"/></clipPath><clipPath id="258ba52848"><path d="M 14 287.804688 L 360 287.804688 L 360 337.679688 L 14 337.679688 Z M 14 287.804688 " clip-rule="nonzero"/></clipPath><clipPath id="b6d8806174"><path d="M 225.167969 38.109375 L 290.851562 38.109375 L 290.851562 103.824219 L 225.167969 103.824219 Z M 225.167969 38.109375 " clip-rule="nonzero"/></clipPath></defs><g clip-path="url(#1a55a25a10)"><path fill="#593b8b" d="M 221.117188 168.390625 C 221.117188 174.984375 219.972656 181.328125 217.867188 187.25 C 217.375 187.363281 216.878906 187.484375 216.398438 187.589844 C 214.8125 187.949219 213.214844 188.261719 211.617188 188.582031 C 210.007812 188.847656 208.410156 189.15625 206.789062 189.347656 C 203.5625 189.847656 200.308594 190.148438 197.050781 190.398438 L 194.601562 190.539062 L 193.367188 190.613281 L 192.140625 190.644531 L 189.683594 190.699219 C 188.871094 190.730469 188.046875 190.683594 187.226562 190.691406 C 182.144531 190.671875 177.042969 190.351562 171.949219 189.765625 C 180.296875 185.671875 185.996094 177.457031 185.996094 168.058594 C 185.996094 154.835938 174.191406 144.113281 159.679688 144.113281 L 133.464844 144.113281 L 133.464844 180.175781 L 127.734375 178.121094 C 120.050781 175.578125 112.167969 173.570312 104.160156 172.304688 C 102.242188 171.992188 100.3125 171.726562 98.375 171.5 L 98.375 109.320312 L 159.679688 109.320312 C 193.496094 109.320312 221.117188 135.871094 221.117188 168.390625 Z M 240.828125 109.320312 L 240.828125 179.066406 C 242.617188 178.359375 244.371094 177.730469 246.132812 177.128906 C 250.101562 175.796875 254.074219 174.707031 258.070312 173.78125 C 260.074219 173.316406 262.078125 172.9375 264.074219 172.539062 C 266.085938 172.191406 268.085938 171.859375 270.101562 171.605469 C 272.042969 171.339844 273.976562 171.121094 275.917969 170.941406 L 275.917969 109.320312 Z M 240.828125 109.320312 " fill-opacity="1" fill-rule="nonzero"/></g><g clip-path="url(#2fd4d65628)"><path fill="#fcb349" d="M 359.96875 201.800781 C 352.441406 200.367188 345.09375 199.144531 337.808594 198.457031 C 330.53125 197.734375 323.347656 197.492188 316.265625 197.71875 C 309.183594 197.945312 302.21875 198.59375 295.382812 199.75 C 293.679688 200.0625 291.96875 200.332031 290.285156 200.691406 L 287.753906 201.199219 L 285.238281 201.785156 L 283.980469 202.066406 L 282.734375 202.386719 L 280.246094 203.027344 C 278.800781 203.457031 277.347656 203.828125 275.90625 204.269531 L 275.90625 292.023438 L 240.816406 292.023438 L 240.816406 219.898438 C 239.277344 220.597656 237.726562 221.242188 236.175781 221.863281 C 232.253906 223.453125 228.253906 224.761719 224.21875 225.921875 C 222.203125 226.527344 220.167969 227.003906 218.128906 227.503906 C 216.089844 227.945312 214.046875 228.417969 211.988281 228.769531 C 207.875 229.535156 203.722656 230.023438 199.5625 230.441406 L 196.433594 230.652344 L 194.875 230.753906 L 193.304688 230.8125 L 190.179688 230.917969 C 189.125 230.941406 188.085938 230.925781 187.046875 230.925781 C 185.996094 230.90625 184.957031 230.917969 183.917969 230.878906 L 182.886719 230.832031 C 175.722656 233.660156 167.875 235.222656 159.671875 235.222656 L 133.453125 235.222656 L 133.453125 292.015625 L 98.390625 292.015625 L 98.390625 204.914062 C 98.375 204.90625 98.355469 204.898438 98.339844 204.898438 C 85.382812 200.605469 71.78125 197.832031 57.6875 197.207031 C 50.636719 196.863281 43.472656 197.039062 36.238281 197.765625 C 32.613281 198.125 28.976562 198.59375 25.328125 199.28125 C 21.667969 199.929688 18.019531 200.726562 14.355469 201.800781 C 17.113281 199.128906 20.292969 196.886719 23.539062 194.777344 C 26.816406 192.703125 30.242188 190.8125 33.789062 189.148438 C 40.871094 185.820312 48.40625 183.253906 56.171875 181.519531 C 58.113281 181.035156 60.078125 180.722656 62.046875 180.332031 C 63.027344 180.136719 64.019531 180.019531 65.015625 179.875 C 66.007812 179.734375 66.988281 179.578125 67.988281 179.457031 C 71.96875 179.003906 75.988281 178.671875 80.027344 178.613281 C 86.152344 178.46875 92.296875 178.777344 98.414062 179.503906 C 100.347656 179.730469 102.277344 179.996094 104.195312 180.304688 C 112.207031 181.570312 120.089844 183.578125 127.777344 186.125 L 133.503906 188.175781 L 138.417969 189.933594 C 140.007812 190.539062 141.632812 191.015625 143.242188 191.519531 L 145.652344 192.308594 L 148.082031 192.976562 C 155.984375 195.230469 163.972656 196.847656 171.988281 197.773438 C 177.074219 198.363281 182.167969 198.683594 187.261719 198.699219 C 188.085938 198.691406 188.898438 198.738281 189.71875 198.710938 L 192.183594 198.652344 L 193.410156 198.625 L 194.640625 198.554688 L 197.085938 198.410156 C 200.347656 198.171875 203.597656 197.867188 206.824219 197.359375 C 208.449219 197.160156 210.046875 196.847656 211.652344 196.589844 C 213.25 196.269531 214.847656 195.957031 216.4375 195.597656 C 216.925781 195.488281 217.421875 195.371094 217.902344 195.261719 C 220.570312 194.621094 223.21875 193.894531 225.804688 193.105469 C 227.335938 192.617188 228.859375 192.117188 230.324219 191.570312 C 231.804688 191.03125 233.261719 190.472656 234.597656 189.886719 L 235.5625 189.46875 L 235.976562 189.273438 L 236.128906 189.207031 C 236.167969 189.1875 236.167969 189.195312 236.226562 189.167969 L 236.515625 189.003906 L 237.101562 188.703125 L 237.328125 188.59375 L 237.78125 188.382812 L 238.597656 188.023438 L 240.160156 187.371094 C 240.390625 187.273438 240.628906 187.179688 240.863281 187.089844 C 242.652344 186.378906 244.40625 185.753906 246.167969 185.148438 C 250.140625 183.8125 254.109375 182.726562 258.105469 181.796875 C 260.109375 181.335938 262.113281 180.960938 264.113281 180.558594 C 266.125 180.210938 268.128906 179.878906 270.144531 179.625 C 272.078125 179.363281 274.019531 179.140625 275.953125 178.960938 C 290.164062 177.65625 304.476562 178.640625 318.050781 181.960938 C 325.765625 183.835938 333.230469 186.460938 340.277344 189.773438 C 347.277344 193.113281 353.9375 197.066406 359.96875 201.800781 Z M 359.96875 201.800781 " fill-opacity="1" fill-rule="nonzero"/></g><g clip-path="url(#258ba52848)"><path fill="#ff914d" d="M 359.96875 378.054688 C 352.441406 379.488281 345.09375 380.714844 337.808594 381.402344 C 330.53125 382.121094 323.347656 382.363281 316.265625 382.136719 C 309.183594 381.910156 302.21875 381.261719 295.382812 380.105469 C 293.679688 379.796875 291.96875 379.53125 290.285156 379.167969 L 287.753906 378.660156 L 285.238281 378.074219 L 283.980469 377.789062 L 282.734375 377.46875 L 280.246094 376.835938 C 278.800781 376.398438 277.347656 376.027344 275.90625 375.585938 L 275.90625 287.835938 L 240.816406 287.835938 L 240.816406 359.960938 C 239.277344 359.257812 237.726562 358.621094 236.175781 357.992188 C 232.253906 356.40625 228.253906 355.101562 224.21875 353.9375 C 222.203125 353.328125 220.167969 352.859375 218.128906 352.359375 C 216.089844 351.910156 214.046875 351.441406 211.988281 351.085938 C 207.875 350.324219 203.722656 349.832031 199.5625 349.414062 L 196.433594 349.210938 L 194.875 349.105469 L 193.304688 349.046875 L 190.179688 348.941406 C 189.125 348.914062 188.085938 348.933594 187.046875 348.933594 C 185.996094 348.949219 184.957031 348.941406 183.917969 348.980469 L 182.886719 349.03125 C 175.722656 346.195312 167.875 344.640625 159.671875 344.640625 L 133.453125 344.640625 L 133.453125 287.84375 L 98.390625 287.84375 L 98.390625 374.941406 C 98.375 374.953125 98.355469 374.964844 98.339844 374.964844 C 85.382812 379.257812 71.78125 382.027344 57.6875 382.648438 C 50.636719 382.992188 43.472656 382.824219 36.238281 382.09375 C 32.613281 381.730469 28.976562 381.261719 25.328125 380.582031 C 21.667969 379.925781 18.019531 379.128906 14.355469 378.054688 C 17.113281 380.730469 20.292969 382.972656 23.539062 385.082031 C 26.816406 387.152344 30.242188 389.042969 33.789062 390.710938 C 40.871094 394.039062 48.40625 396.601562 56.171875 398.34375 C 58.113281 398.824219 60.078125 399.132812 62.046875 399.523438 C 63.027344 399.71875 64.019531 399.835938 65.015625 399.988281 C 66.007812 400.121094 66.988281 400.277344 67.988281 400.40625 C 71.96875 400.859375 75.988281 401.1875 80.027344 401.246094 C 86.152344 401.386719 92.296875 401.085938 98.414062 400.359375 C 100.347656 400.132812 102.277344 399.863281 104.195312 399.550781 C 112.207031 398.285156 120.089844 396.28125 127.777344 393.738281 L 133.503906 391.679688 L 138.417969 389.921875 C 140.007812 389.316406 141.632812 388.847656 143.242188 388.335938 L 145.652344 387.550781 L 148.082031 386.878906 C 155.984375 384.628906 163.972656 383.007812 171.988281 382.085938 C 177.074219 381.5 182.167969 381.175781 187.261719 381.15625 C 188.085938 381.167969 188.898438 381.121094 189.71875 381.144531 L 192.183594 381.203125 L 193.410156 381.230469 L 194.640625 381.308594 L 197.085938 381.453125 C 200.347656 381.683594 203.597656 381.988281 206.824219 382.5 C 208.449219 382.695312 210.046875 383.007812 211.652344 383.265625 C 213.25 383.589844 214.847656 383.898438 216.4375 384.257812 C 216.925781 384.375 217.421875 384.484375 217.902344 384.601562 C 220.570312 385.234375 223.21875 385.960938 225.804688 386.753906 C 227.335938 387.238281 228.859375 387.738281 230.324219 388.289062 C 231.804688 388.828125 233.261719 389.386719 234.597656 389.972656 L 235.5625 390.386719 L 235.976562 390.589844 L 236.128906 390.652344 C 236.167969 390.671875 236.167969 390.664062 236.226562 390.6875 L 236.515625 390.851562 L 237.101562 391.152344 L 237.328125 391.269531 L 237.78125 391.476562 L 238.597656 391.832031 L 240.160156 392.488281 C 240.390625 392.582031 240.628906 392.675781 240.863281 392.773438 C 242.652344 393.480469 244.40625 394.101562 246.167969 394.707031 C 250.140625 396.042969 254.109375 397.128906 258.105469 398.058594 C 260.109375 398.523438 262.113281 398.898438 264.113281 399.296875 C 266.125 399.644531 268.128906 399.976562 270.144531 400.230469 C 272.078125 400.496094 274.019531 400.71875 275.953125 400.894531 C 290.164062 402.199219 304.476562 401.21875 318.050781 397.894531 C 325.765625 396.023438 333.230469 393.394531 340.277344 390.082031 C 347.277344 386.746094 353.9375 382.792969 359.96875 378.054688 Z M 359.96875 378.054688 " fill-opacity="1" fill-rule="nonzero"/></g><g clip-path="url(#b6d8806174)"><path fill="#593b8b" d="M 258.132812 104.078125 C 276.34375 104.078125 291.101562 89.3125 291.101562 71.09375 C 291.101562 52.875 276.34375 38.109375 258.132812 38.109375 C 239.925781 38.109375 225.167969 52.875 225.167969 71.09375 C 225.167969 89.3125 239.925781 104.078125 258.132812 104.078125 Z M 258.132812 53.503906 C 254.214844 53.503906 250.546875 54.765625 247.839844 57.277344 C 245.113281 59.808594 243.507812 63.484375 243.507812 68.007812 C 243.507812 71.519531 245.445312 75.363281 247.609375 78.625 C 249.816406 81.960938 252.484375 85.023438 254.378906 87.042969 C 256.425781 89.234375 259.839844 89.234375 261.890625 87.042969 C 263.78125 85.023438 266.453125 81.960938 268.664062 78.625 C 270.820312 75.363281 272.765625 71.519531 272.765625 68.007812 C 272.765625 63.484375 271.15625 59.808594 268.429688 57.277344 C 265.726562 54.765625 262.054688 53.503906 258.132812 53.503906 Z M 258.132812 62.652344 C 256.113281 62.652344 254.480469 64.285156 254.480469 66.308594 C 254.480469 68.328125 256.113281 69.96875 258.132812 69.96875 C 260.152344 69.96875 261.792969 68.328125 261.792969 66.308594 C 261.792969 64.285156 260.152344 62.652344 258.132812 62.652344 Z M 250.820312 66.308594 C 250.820312 62.265625 254.09375 58.992188 258.132812 58.992188 C 262.171875 58.992188 265.445312 62.265625 265.445312 66.308594 C 265.445312 70.347656 262.171875 73.625 258.132812 73.625 C 254.09375 73.625 250.820312 70.347656 250.820312 66.308594 Z M 250.820312 66.308594 " fill-opacity="1" fill-rule="evenodd"/></g></svg>