<?xml version="1.0" standalone="no"?>
<!DOCTYPE svg PUBLIC "-//W3C//DTD SVG 20010904//EN"
 "http://www.w3.org/TR/2001/REC-SVG-20010904/DTD/svg10.dtd">
<svg version="1.0" xmlns="http://www.w3.org/2000/svg"
 width="128.000000pt" height="128.000000pt" viewBox="0 0 128.000000 128.000000"
 preserveAspectRatio="xMidYMid meet">

<g transform="translate(0.000000,128.000000) scale(0.100000,-0.100000)"
fill="#000000" stroke="none">
<path d="M171 1060 c-49 -12 -83 -40 -108 -90 -22 -43 -23 -53 -23 -330 0
-277 1 -287 22 -330 27 -52 60 -78 114 -90 51 -12 877 -12 928 0 54 12 87 38
114 90 21 43 22 53 22 330 0 277 -1 287 -22 330 -27 52 -60 78 -114 90 -48 12
-886 11 -933 0z m949 -69 c19 -10 36 -25 38 -33 2 -10 -86 -82 -237 -197 -219
-165 -244 -181 -281 -181 -37 0 -62 16 -281 181 -151 115 -239 187 -237 197 2
8 19 23 38 33 32 18 64 19 480 19 416 0 448 -1 480 -19z m-857 -230 c75 -57
137 -107 136 -110 -1 -7 -278 -254 -291 -259 -4 -2 -8 107 -8 243 0 202 2 245
13 238 8 -4 75 -55 150 -112z m913 -369 c-7 -6 -295 251 -292 261 0 4 66 57
146 118 l145 110 3 -242 c1 -133 0 -244 -2 -247z m-570 132 c54 -10 98 4 162
50 l59 43 166 -146 c91 -80 164 -150 163 -155 -1 -5 -18 -17 -36 -28 -32 -17
-67 -18 -480 -18 -413 0 -448 1 -480 18 -18 11 -35 23 -36 28 -1 5 72 75 163
155 l166 146 59 -43 c33 -24 75 -46 94 -50z"/>
</g>
</svg>
