<svg width="16" height="20" viewBox="0 0 16 20" fill="none" xmlns="http://www.w3.org/2000/svg">
<path d="M8.0019 9.86535C8.49948 9.86535 8.92487 9.68818 9.27807 9.33385C9.63127 8.97952 9.80787 8.55356 9.80787 8.05598C9.80787 7.55839 9.63071 7.133 9.27637 6.7798C8.92204 6.4266 8.49608 6.25 7.9985 6.25C7.50092 6.25 7.07552 6.42717 6.72232 6.7815C6.36912 7.13583 6.19252 7.56179 6.19252 8.05938C6.19252 8.55696 6.36969 8.98235 6.72402 9.33555C7.07836 9.68875 7.50431 9.86535 8.0019 9.86535ZM8.0002 17.5135C9.9566 15.7622 11.4537 14.0824 12.4915 12.474C13.5294 10.8657 14.0483 9.45703 14.0483 8.24805C14.0483 6.42498 13.4691 4.92627 12.3108 3.7519C11.1524 2.57753 9.71558 1.99035 8.0002 1.99035C6.28481 1.99035 4.84796 2.57753 3.68962 3.7519C2.53129 4.92627 1.95212 6.42498 1.95212 8.24805C1.95212 9.45703 2.47103 10.8657 3.50885 12.474C4.54668 14.0824 6.0438 15.7622 8.0002 17.5135ZM8.0002 19.5096C5.48355 17.3288 3.59637 15.2993 2.33867 13.4211C1.08099 11.5429 0.452148 9.81857 0.452148 8.24805C0.452148 5.94038 1.19862 4.07213 2.69157 2.64328C4.18451 1.21443 5.95405 0.5 8.0002 0.5C10.0463 0.5 11.8159 1.21443 13.3088 2.64328C14.8018 4.07213 15.5482 5.94038 15.5482 8.24805C15.5482 9.81857 14.9194 11.5429 13.6617 13.4211C12.404 15.2993 10.5168 17.3288 8.0002 19.5096Z" fill="#090C49"/>
</svg>
