<svg width="64" height="41" viewBox="0 0 64 41" fill="none" xmlns="http://www.w3.org/2000/svg">
<mask id="mask0_1054_7174" style="mask-type:alpha" maskUnits="userSpaceOnUse" x="20" y="0" width="25" height="25">
<rect x="20.5" y="0.98877" width="24" height="24" fill="#D9D9D9"/>
</mask>
<g mask="url(#mask0_1054_7174)">
<path d="M27.6538 22.5464C27.1679 22.5464 26.7548 22.3762 26.4144 22.0358C26.074 21.6955 25.9038 21.2823 25.9038 20.7964C25.9038 20.3105 26.074 19.8974 26.4144 19.557C26.7548 19.2166 27.1679 19.0464 27.6538 19.0464C28.1397 19.0464 28.5529 19.2166 28.8932 19.557C29.2336 19.8974 29.4038 20.3105 29.4038 20.7964C29.4038 21.2823 29.2336 21.6955 28.8932 22.0358C28.5529 22.3762 28.1397 22.5464 27.6538 22.5464ZM37.3461 22.5464C36.8602 22.5464 36.4471 22.3762 36.1067 22.0358C35.7663 21.6955 35.5961 21.2823 35.5961 20.7964C35.5961 20.3105 35.7663 19.8974 36.1067 19.557C36.4471 19.2166 36.8602 19.0464 37.3461 19.0464C37.832 19.0464 38.2451 19.2166 38.5855 19.557C38.9259 19.8974 39.0961 20.3105 39.0961 20.7964C39.0961 21.2823 38.9259 21.6955 38.5855 22.0358C38.2451 22.3762 37.832 22.5464 37.3461 22.5464ZM26.5154 6.73875L29.05 12.0464H35.8673C35.925 12.0464 35.9763 12.032 36.0211 12.0032C36.066 11.9743 36.1045 11.9343 36.1365 11.883L38.8192 7.00797C38.8577 6.93745 38.8609 6.87495 38.8288 6.82047C38.7968 6.76597 38.7423 6.73872 38.6653 6.73872L26.5154 6.73875ZM25.7961 5.2388H39.6807C40.0897 5.2388 40.399 5.41283 40.6086 5.76089C40.8182 6.10898 40.8281 6.46443 40.6384 6.82724L37.4346 12.631C37.2705 12.9195 37.0535 13.1442 36.7836 13.3051C36.5137 13.466 36.2179 13.5464 35.8961 13.5464H28.6L27.4423 15.6618C27.391 15.7387 27.3894 15.8221 27.4375 15.9118C27.4856 16.0016 27.5577 16.0464 27.6538 16.0464H39.0961V17.5464H27.6538C26.9872 17.5464 26.4862 17.2589 26.1509 16.6839C25.8157 16.1089 25.8038 15.5349 26.1154 14.9618L27.5423 12.3964L23.9038 4.73872H22V3.23877H24.8461L25.7961 5.2388Z" fill="#090C49"/>
</g>
<path d="M5.04 30.9667C5.01 31.0167 4.97833 31.0551 4.945 31.0817C4.91167 31.1051 4.86833 31.1167 4.815 31.1167C4.75833 31.1167 4.69167 31.0884 4.615 31.0317C4.54167 30.9751 4.44667 30.9134 4.33 30.8467C4.21667 30.7767 4.07833 30.7134 3.915 30.6567C3.755 30.6001 3.56 30.5717 3.33 30.5717C3.11333 30.5717 2.92167 30.6017 2.755 30.6617C2.58833 30.7184 2.44833 30.7967 2.335 30.8967C2.225 30.9967 2.14167 31.1151 2.085 31.2517C2.02833 31.3851 2 31.5301 2 31.6867C2 31.8867 2.04833 32.0534 2.145 32.1867C2.245 32.3167 2.375 32.4284 2.535 32.5217C2.69833 32.6151 2.88167 32.6967 3.085 32.7667C3.29167 32.8334 3.50167 32.9034 3.715 32.9767C3.93167 33.0501 4.14167 33.1334 4.345 33.2267C4.55167 33.3167 4.735 33.4317 4.895 33.5717C5.05833 33.7117 5.18833 33.8834 5.285 34.0867C5.385 34.2901 5.435 34.5401 5.435 34.8367C5.435 35.1501 5.38167 35.4451 5.275 35.7217C5.16833 35.9951 5.01167 36.2334 4.805 36.4367C4.60167 36.6401 4.35 36.8001 4.05 36.9167C3.75333 37.0334 3.415 37.0917 3.035 37.0917C2.57167 37.0917 2.14833 37.0084 1.765 36.8417C1.385 36.6717 1.06 36.4434 0.79 36.1567L1.07 35.6967C1.09667 35.6601 1.12833 35.6301 1.165 35.6067C1.205 35.5801 1.24833 35.5667 1.295 35.5667C1.365 35.5667 1.445 35.6051 1.535 35.6817C1.625 35.7551 1.73667 35.8367 1.87 35.9267C2.00667 36.0167 2.17 36.1001 2.36 36.1767C2.55333 36.2501 2.78833 36.2867 3.065 36.2867C3.295 36.2867 3.5 36.2551 3.68 36.1917C3.86 36.1284 4.01167 36.0401 4.135 35.9267C4.26167 35.8101 4.35833 35.6717 4.425 35.5117C4.49167 35.3517 4.525 35.1734 4.525 34.9767C4.525 34.7601 4.475 34.5834 4.375 34.4467C4.27833 34.3067 4.15 34.1901 3.99 34.0967C3.83 34.0034 3.64667 33.9251 3.44 33.8617C3.23667 33.7951 3.02667 33.7284 2.81 33.6617C2.59667 33.5917 2.38667 33.5117 2.18 33.4217C1.97667 33.3317 1.795 33.2151 1.635 33.0717C1.475 32.9284 1.345 32.7501 1.245 32.5367C1.14833 32.3201 1.1 32.0534 1.1 31.7367C1.1 31.4834 1.14833 31.2384 1.245 31.0017C1.345 30.7651 1.48833 30.5551 1.675 30.3717C1.86167 30.1884 2.09167 30.0417 2.365 29.9317C2.64167 29.8217 2.95833 29.7667 3.315 29.7667C3.715 29.7667 4.08 29.8301 4.41 29.9567C4.74 30.0834 5.02833 30.2667 5.275 30.5067L5.04 30.9667ZM6.53273 37.0117V29.6467H7.42273V32.6267C7.6394 32.3967 7.8794 32.2134 8.14273 32.0767C8.40607 31.9367 8.7094 31.8667 9.05273 31.8667C9.3294 31.8667 9.57273 31.9134 9.78273 32.0067C9.99607 32.0967 10.1727 32.2267 10.3127 32.3967C10.4561 32.5634 10.5644 32.7651 10.6377 33.0017C10.7111 33.2384 10.7477 33.5001 10.7477 33.7867V37.0117H9.85773V33.7867C9.85773 33.4034 9.7694 33.1067 9.59273 32.8967C9.4194 32.6834 9.15273 32.5767 8.79273 32.5767C8.5294 32.5767 8.28273 32.6401 8.05273 32.7667C7.82607 32.8934 7.61607 33.0651 7.42273 33.2817V37.0117H6.53273ZM14.1394 31.8667C14.5094 31.8667 14.8427 31.9284 15.1394 32.0517C15.4394 32.1751 15.6927 32.3501 15.8994 32.5767C16.1094 32.8034 16.2694 33.0784 16.3794 33.4017C16.4927 33.7217 16.5494 34.0801 16.5494 34.4767C16.5494 34.8767 16.4927 35.2367 16.3794 35.5567C16.2694 35.8767 16.1094 36.1501 15.8994 36.3767C15.6927 36.6034 15.4394 36.7784 15.1394 36.9017C14.8427 37.0217 14.5094 37.0817 14.1394 37.0817C13.7694 37.0817 13.4344 37.0217 13.1344 36.9017C12.8377 36.7784 12.5844 36.6034 12.3744 36.3767C12.1644 36.1501 12.0027 35.8767 11.8894 35.5567C11.776 35.2367 11.7194 34.8767 11.7194 34.4767C11.7194 34.0801 11.776 33.7217 11.8894 33.4017C12.0027 33.0784 12.1644 32.8034 12.3744 32.5767C12.5844 32.3501 12.8377 32.1751 13.1344 32.0517C13.4344 31.9284 13.7694 31.8667 14.1394 31.8667ZM14.1394 36.3867C14.6394 36.3867 15.0127 36.2201 15.2594 35.8867C15.506 35.5501 15.6294 35.0817 15.6294 34.4817C15.6294 33.8784 15.506 33.4084 15.2594 33.0717C15.0127 32.7351 14.6394 32.5667 14.1394 32.5667C13.886 32.5667 13.666 32.6101 13.4794 32.6967C13.2927 32.7834 13.136 32.9084 13.0094 33.0717C12.886 33.2351 12.7927 33.4367 12.7294 33.6767C12.6694 33.9134 12.6394 34.1817 12.6394 34.4817C12.6394 34.7817 12.6694 35.0501 12.7294 35.2867C12.7927 35.5234 12.886 35.7234 13.0094 35.8867C13.136 36.0467 13.2927 36.1701 13.4794 36.2567C13.666 36.3434 13.886 36.3867 14.1394 36.3867ZM17.646 38.7267V31.9467H18.176C18.3027 31.9467 18.3827 32.0084 18.416 32.1317L18.491 32.7317C18.7077 32.4684 18.9543 32.2567 19.231 32.0967C19.511 31.9367 19.8327 31.8567 20.196 31.8567C20.486 31.8567 20.7493 31.9134 20.986 32.0267C21.2227 32.1367 21.4243 32.3017 21.591 32.5217C21.7577 32.7384 21.886 33.0084 21.976 33.3317C22.066 33.6551 22.111 34.0267 22.111 34.4467C22.111 34.8201 22.061 35.1684 21.961 35.4917C21.861 35.8117 21.7177 36.0901 21.531 36.3267C21.3443 36.5601 21.1143 36.7451 20.841 36.8817C20.571 37.0151 20.266 37.0817 19.926 37.0817C19.6127 37.0817 19.3443 37.0301 19.121 36.9267C18.901 36.8234 18.706 36.6767 18.536 36.4867V38.7267H17.646ZM19.901 32.5767C19.611 32.5767 19.356 32.6434 19.136 32.7767C18.9193 32.9101 18.7193 33.0984 18.536 33.3417V35.7917C18.6993 36.0117 18.8777 36.1667 19.071 36.2567C19.2677 36.3467 19.486 36.3917 19.726 36.3917C20.196 36.3917 20.5577 36.2234 20.811 35.8867C21.0643 35.5501 21.191 35.0701 21.191 34.4467C21.191 34.1167 21.161 33.8334 21.101 33.5967C21.0443 33.3601 20.961 33.1667 20.851 33.0167C20.741 32.8634 20.606 32.7517 20.446 32.6817C20.286 32.6117 20.1043 32.5767 19.901 32.5767ZM23.1636 38.7267V31.9467H23.6936C23.8203 31.9467 23.9003 32.0084 23.9336 32.1317L24.0086 32.7317C24.2253 32.4684 24.4719 32.2567 24.7486 32.0967C25.0286 31.9367 25.3503 31.8567 25.7136 31.8567C26.0036 31.8567 26.2669 31.9134 26.5036 32.0267C26.7403 32.1367 26.9419 32.3017 27.1086 32.5217C27.2753 32.7384 27.4036 33.0084 27.4936 33.3317C27.5836 33.6551 27.6286 34.0267 27.6286 34.4467C27.6286 34.8201 27.5786 35.1684 27.4786 35.4917C27.3786 35.8117 27.2353 36.0901 27.0486 36.3267C26.8619 36.5601 26.6319 36.7451 26.3586 36.8817C26.0886 37.0151 25.7836 37.0817 25.4436 37.0817C25.1303 37.0817 24.8619 37.0301 24.6386 36.9267C24.4186 36.8234 24.2236 36.6767 24.0536 36.4867V38.7267H23.1636ZM25.4186 32.5767C25.1286 32.5767 24.8736 32.6434 24.6536 32.7767C24.4369 32.9101 24.2369 33.0984 24.0536 33.3417V35.7917C24.2169 36.0117 24.3953 36.1667 24.5886 36.2567C24.7853 36.3467 25.0036 36.3917 25.2436 36.3917C25.7136 36.3917 26.0753 36.2234 26.3286 35.8867C26.5819 35.5501 26.7086 35.0701 26.7086 34.4467C26.7086 34.1167 26.6786 33.8334 26.6186 33.5967C26.5619 33.3601 26.4786 33.1667 26.3686 33.0167C26.2586 32.8634 26.1236 32.7517 25.9636 32.6817C25.8036 32.6117 25.6219 32.5767 25.4186 32.5767ZM29.6712 31.9467V37.0117H28.7812V31.9467H29.6712ZM29.8712 30.3567C29.8712 30.4434 29.8528 30.5251 29.8162 30.6017C29.7828 30.6751 29.7362 30.7417 29.6762 30.8017C29.6195 30.8584 29.5528 30.9034 29.4762 30.9367C29.3995 30.9701 29.3178 30.9867 29.2312 30.9867C29.1445 30.9867 29.0628 30.9701 28.9862 30.9367C28.9128 30.9034 28.8462 30.8584 28.7862 30.8017C28.7295 30.7417 28.6845 30.6751 28.6512 30.6017C28.6178 30.5251 28.6012 30.4434 28.6012 30.3567C28.6012 30.2701 28.6178 30.1884 28.6512 30.1117C28.6845 30.0317 28.7295 29.9634 28.7862 29.9067C28.8462 29.8467 28.9128 29.8001 28.9862 29.7667C29.0628 29.7334 29.1445 29.7167 29.2312 29.7167C29.3178 29.7167 29.3995 29.7334 29.4762 29.7667C29.5528 29.8001 29.6195 29.8467 29.6762 29.9067C29.7362 29.9634 29.7828 30.0317 29.8162 30.1117C29.8528 30.1884 29.8712 30.2701 29.8712 30.3567ZM31.2398 37.0117V31.9467H31.7698C31.8964 31.9467 31.9764 32.0084 32.0098 32.1317L32.0798 32.6817C32.2998 32.4384 32.5448 32.2417 32.8148 32.0917C33.0881 31.9417 33.4031 31.8667 33.7598 31.8667C34.0364 31.8667 34.2798 31.9134 34.4898 32.0067C34.7031 32.0967 34.8798 32.2267 35.0198 32.3967C35.1631 32.5634 35.2714 32.7651 35.3448 33.0017C35.4181 33.2384 35.4548 33.5001 35.4548 33.7867V37.0117H34.5648V33.7867C34.5648 33.4034 34.4764 33.1067 34.2998 32.8967C34.1264 32.6834 33.8598 32.5767 33.4998 32.5767C33.2364 32.5767 32.9898 32.6401 32.7598 32.7667C32.5331 32.8934 32.3231 33.0651 32.1298 33.2817V37.0117H31.2398ZM38.5014 31.8617C38.7214 31.8617 38.9264 31.8867 39.1164 31.9367C39.3097 31.9834 39.4847 32.0534 39.6414 32.1467H41.0164V32.4767C41.0164 32.5867 40.9464 32.6567 40.8064 32.6867L40.2314 32.7667C40.3447 32.9834 40.4014 33.2251 40.4014 33.4917C40.4014 33.7384 40.3531 33.9634 40.2564 34.1667C40.1631 34.3667 40.0314 34.5384 39.8614 34.6817C39.6947 34.8251 39.4947 34.9351 39.2614 35.0117C39.0314 35.0884 38.7781 35.1267 38.5014 35.1267C38.2647 35.1267 38.0414 35.0984 37.8314 35.0417C37.7247 35.1084 37.6431 35.1801 37.5864 35.2567C37.5331 35.3334 37.5064 35.4084 37.5064 35.4817C37.5064 35.6017 37.5547 35.6934 37.6514 35.7567C37.7481 35.8167 37.8764 35.8601 38.0364 35.8867C38.1964 35.9134 38.3781 35.9301 38.5814 35.9367C38.7847 35.9434 38.9914 35.9551 39.2014 35.9717C39.4147 35.9851 39.6231 36.0101 39.8264 36.0467C40.0297 36.0834 40.2114 36.1434 40.3714 36.2267C40.5314 36.3101 40.6597 36.4251 40.7564 36.5717C40.8531 36.7184 40.9014 36.9084 40.9014 37.1417C40.9014 37.3584 40.8464 37.5684 40.7364 37.7717C40.6297 37.9751 40.4747 38.1551 40.2714 38.3117C40.0681 38.4717 39.8197 38.5984 39.5264 38.6917C39.2331 38.7884 38.9014 38.8367 38.5314 38.8367C38.1614 38.8367 37.8364 38.8001 37.5564 38.7267C37.2797 38.6534 37.0497 38.5551 36.8664 38.4317C36.6831 38.3084 36.5447 38.1651 36.4514 38.0017C36.3614 37.8417 36.3164 37.6734 36.3164 37.4967C36.3164 37.2467 36.3947 37.0351 36.5514 36.8617C36.7114 36.6851 36.9297 36.5451 37.2064 36.4417C37.0631 36.3751 36.9481 36.2867 36.8614 36.1767C36.7781 36.0634 36.7364 35.9134 36.7364 35.7267C36.7364 35.6534 36.7497 35.5784 36.7764 35.5017C36.8031 35.4217 36.8431 35.3434 36.8964 35.2667C36.9531 35.1901 37.0214 35.1167 37.1014 35.0467C37.1814 34.9767 37.2747 34.9151 37.3814 34.8617C37.1314 34.7217 36.9347 34.5367 36.7914 34.3067C36.6514 34.0734 36.5814 33.8017 36.5814 33.4917C36.5814 33.2451 36.6281 33.0217 36.7214 32.8217C36.8181 32.6184 36.9514 32.4467 37.1214 32.3067C37.2914 32.1634 37.4931 32.0534 37.7264 31.9767C37.9631 31.9001 38.2214 31.8617 38.5014 31.8617ZM40.0814 37.2867C40.0814 37.1601 40.0464 37.0584 39.9764 36.9817C39.9064 36.9051 39.8114 36.8467 39.6914 36.8067C39.5714 36.7634 39.4331 36.7317 39.2764 36.7117C39.1197 36.6917 38.9547 36.6784 38.7814 36.6717C38.6081 36.6617 38.4314 36.6517 38.2514 36.6417C38.0714 36.6317 37.8997 36.6134 37.7364 36.5867C37.5464 36.6767 37.3914 36.7867 37.2714 36.9167C37.1547 37.0467 37.0964 37.2017 37.0964 37.3817C37.0964 37.4951 37.1247 37.6001 37.1814 37.6967C37.2414 37.7967 37.3314 37.8817 37.4514 37.9517C37.5714 38.0251 37.7214 38.0817 37.9014 38.1217C38.0847 38.1651 38.2997 38.1867 38.5464 38.1867C38.7864 38.1867 39.0014 38.1651 39.1914 38.1217C39.3814 38.0784 39.5414 38.0167 39.6714 37.9367C39.8047 37.8567 39.9064 37.7617 39.9764 37.6517C40.0464 37.5417 40.0814 37.4201 40.0814 37.2867ZM38.5014 34.5367C38.6814 34.5367 38.8397 34.5117 38.9764 34.4617C39.1164 34.4117 39.2331 34.3417 39.3264 34.2517C39.4197 34.1617 39.4897 34.0551 39.5364 33.9317C39.5831 33.8051 39.6064 33.6667 39.6064 33.5167C39.6064 33.2067 39.5114 32.9601 39.3214 32.7767C39.1347 32.5934 38.8614 32.5017 38.5014 32.5017C38.1447 32.5017 37.8714 32.5934 37.6814 32.7767C37.4947 32.9601 37.4014 33.2067 37.4014 33.5167C37.4014 33.6667 37.4247 33.8051 37.4714 33.9317C37.5214 34.0551 37.5931 34.1617 37.6864 34.2517C37.7797 34.3417 37.8947 34.4117 38.0314 34.4617C38.1681 34.5117 38.3247 34.5367 38.5014 34.5367ZM49.0274 35.5317C49.0808 35.5317 49.1291 35.5534 49.1724 35.5967L49.5524 36.0117C49.2591 36.3517 48.9024 36.6167 48.4824 36.8067C48.0658 36.9967 47.5624 37.0917 46.9724 37.0917C46.4558 37.0917 45.9874 37.0034 45.5674 36.8267C45.1474 36.6467 44.7891 36.3967 44.4924 36.0767C44.1958 35.7534 43.9658 35.3667 43.8024 34.9167C43.6391 34.4667 43.5574 33.9717 43.5574 33.4317C43.5574 32.8917 43.6441 32.3967 43.8174 31.9467C43.9941 31.4967 44.2408 31.1101 44.5574 30.7867C44.8741 30.4634 45.2524 30.2134 45.6924 30.0367C46.1358 29.8567 46.6241 29.7667 47.1574 29.7667C47.6841 29.7667 48.1374 29.8484 48.5174 30.0117C48.9008 30.1751 49.2408 30.3967 49.5374 30.6767L49.2224 31.1217C49.1991 31.1551 49.1724 31.1834 49.1424 31.2067C49.1124 31.2267 49.0691 31.2367 49.0124 31.2367C48.9691 31.2367 48.9224 31.2217 48.8724 31.1917C48.8258 31.1584 48.7691 31.1184 48.7024 31.0717C48.6358 31.0251 48.5574 30.9751 48.4674 30.9217C48.3774 30.8684 48.2708 30.8184 48.1474 30.7717C48.0241 30.7251 47.8808 30.6867 47.7174 30.6567C47.5541 30.6234 47.3658 30.6067 47.1524 30.6067C46.7691 30.6067 46.4174 30.6734 46.0974 30.8067C45.7808 30.9367 45.5074 31.1234 45.2774 31.3667C45.0474 31.6101 44.8674 31.9067 44.7374 32.2567C44.6108 32.6067 44.5474 32.9984 44.5474 33.4317C44.5474 33.8784 44.6108 34.2767 44.7374 34.6267C44.8674 34.9767 45.0424 35.2734 45.2624 35.5167C45.4858 35.7567 45.7491 35.9401 46.0524 36.0667C46.3558 36.1934 46.6824 36.2567 47.0324 36.2567C47.2458 36.2567 47.4374 36.2451 47.6074 36.2217C47.7774 36.1951 47.9341 36.1551 48.0774 36.1017C48.2241 36.0484 48.3591 35.9817 48.4824 35.9017C48.6091 35.8184 48.7358 35.7201 48.8624 35.6067C48.9191 35.5567 48.9741 35.5317 49.0274 35.5317ZM54.4031 37.0117H54.0081C53.9215 37.0117 53.8515 36.9984 53.7981 36.9717C53.7448 36.9451 53.7098 36.8884 53.6931 36.8017L53.5931 36.3317C53.4598 36.4517 53.3298 36.5601 53.2031 36.6567C53.0765 36.7501 52.9431 36.8301 52.8031 36.8967C52.6631 36.9601 52.5131 37.0084 52.3531 37.0417C52.1965 37.0751 52.0215 37.0917 51.8281 37.0917C51.6315 37.0917 51.4465 37.0651 51.2731 37.0117C51.1031 36.9551 50.9548 36.8717 50.8281 36.7617C50.7015 36.6517 50.5998 36.5134 50.5231 36.3467C50.4498 36.1767 50.4131 35.9767 50.4131 35.7467C50.4131 35.5467 50.4681 35.3551 50.5781 35.1717C50.6881 34.9851 50.8648 34.8201 51.1081 34.6767C51.3548 34.5334 51.6765 34.4167 52.0731 34.3267C52.4698 34.2334 52.9548 34.1801 53.5281 34.1667V33.7717C53.5281 33.3784 53.4431 33.0817 53.2731 32.8817C53.1065 32.6784 52.8581 32.5767 52.5281 32.5767C52.3115 32.5767 52.1281 32.6051 51.9781 32.6617C51.8315 32.7151 51.7031 32.7767 51.5931 32.8467C51.4865 32.9134 51.3931 32.9751 51.3131 33.0317C51.2365 33.0851 51.1598 33.1117 51.0831 33.1117C51.0231 33.1117 50.9698 33.0967 50.9231 33.0667C50.8798 33.0334 50.8448 32.9934 50.8181 32.9467L50.6581 32.6617C50.9381 32.3917 51.2398 32.1901 51.5631 32.0567C51.8865 31.9234 52.2448 31.8567 52.6381 31.8567C52.9215 31.8567 53.1731 31.9034 53.3931 31.9967C53.6131 32.0901 53.7981 32.2201 53.9481 32.3867C54.0981 32.5534 54.2115 32.7551 54.2881 32.9917C54.3648 33.2284 54.4031 33.4884 54.4031 33.7717V37.0117ZM52.0931 36.4667C52.2498 36.4667 52.3931 36.4517 52.5231 36.4217C52.6531 36.3884 52.7748 36.3434 52.8881 36.2867C53.0048 36.2267 53.1148 36.1551 53.2181 36.0717C53.3248 35.9884 53.4281 35.8934 53.5281 35.7867V34.7317C53.1181 34.7451 52.7698 34.7784 52.4831 34.8317C52.1965 34.8817 51.9631 34.9484 51.7831 35.0317C51.6031 35.1151 51.4715 35.2134 51.3881 35.3267C51.3081 35.4401 51.2681 35.5667 51.2681 35.7067C51.2681 35.8401 51.2898 35.9551 51.3331 36.0517C51.3765 36.1484 51.4348 36.2284 51.5081 36.2917C51.5815 36.3517 51.6681 36.3967 51.7681 36.4267C51.8681 36.4534 51.9765 36.4667 52.0931 36.4667ZM55.7515 37.0117V31.9467H56.2615C56.3582 31.9467 56.4248 31.9651 56.4615 32.0017C56.4982 32.0384 56.5232 32.1017 56.5365 32.1917L56.5965 32.9817C56.7698 32.6284 56.9832 32.3534 57.2365 32.1567C57.4932 31.9567 57.7932 31.8567 58.1365 31.8567C58.2765 31.8567 58.4032 31.8734 58.5165 31.9067C58.6298 31.9367 58.7348 31.9801 58.8315 32.0367L58.7165 32.7017C58.6932 32.7851 58.6415 32.8267 58.5615 32.8267C58.5148 32.8267 58.4432 32.8117 58.3465 32.7817C58.2498 32.7484 58.1148 32.7317 57.9415 32.7317C57.6315 32.7317 57.3715 32.8217 57.1615 33.0017C56.9548 33.1817 56.7815 33.4434 56.6415 33.7867V37.0117H55.7515ZM61.3197 37.0917C60.9197 37.0917 60.6114 36.9801 60.3947 36.7567C60.1814 36.5334 60.0747 36.2117 60.0747 35.7917V32.6917H59.4647C59.4114 32.6917 59.3664 32.6767 59.3297 32.6467C59.293 32.6134 59.2747 32.5634 59.2747 32.4967V32.1417L60.1047 32.0367L60.3097 30.4717C60.3164 30.4217 60.338 30.3817 60.3747 30.3517C60.4114 30.3184 60.458 30.3017 60.5147 30.3017H60.9647V32.0467H62.4147V32.6917H60.9647V35.7317C60.9647 35.9451 61.0164 36.1034 61.1197 36.2067C61.223 36.3101 61.3564 36.3617 61.5197 36.3617C61.613 36.3617 61.693 36.3501 61.7597 36.3267C61.8297 36.3001 61.8897 36.2717 61.9397 36.2417C61.9897 36.2117 62.0314 36.1851 62.0647 36.1617C62.1014 36.1351 62.133 36.1217 62.1597 36.1217C62.2064 36.1217 62.248 36.1501 62.2847 36.2067L62.5447 36.6317C62.3914 36.7751 62.2064 36.8884 61.9897 36.9717C61.773 37.0517 61.5497 37.0917 61.3197 37.0917Z" fill="#090C49"/>
</svg>
