<svg width="67" height="40" viewBox="0 0 67 40" fill="none" xmlns="http://www.w3.org/2000/svg">
<rect width="67" height="40" rx="10" fill="#090C49"/>
<path d="M28.3763 21.79L27.0983 18.448C27.0063 18.22 26.9143 17.932 26.8223 17.584C26.7783 17.756 26.7323 17.916 26.6843 18.064C26.6403 18.212 26.5963 18.344 26.5523 18.46L25.2803 21.79H28.3763ZM30.9023 25H29.9183C29.8063 25 29.7143 24.972 29.6423 24.916C29.5703 24.86 29.5183 24.788 29.4863 24.7L28.7243 22.702H24.9263L24.1643 24.7C24.1363 24.776 24.0843 24.846 24.0083 24.91C23.9323 24.97 23.8403 25 23.7323 25H22.7483L26.1803 16.384H27.4703L30.9023 25ZM35.5391 20.38C35.3471 20.128 35.1391 19.952 34.9151 19.852C34.6951 19.752 34.4471 19.702 34.1711 19.702C33.6351 19.702 33.2191 19.896 32.9231 20.284C32.6311 20.668 32.4851 21.23 32.4851 21.97C32.4851 22.358 32.5171 22.69 32.5811 22.966C32.6491 23.238 32.7451 23.462 32.8691 23.638C32.9971 23.81 33.1531 23.938 33.3371 24.022C33.5211 24.102 33.7291 24.142 33.9611 24.142C34.3011 24.142 34.5951 24.066 34.8431 23.914C35.0911 23.762 35.3231 23.548 35.5391 23.272V20.38ZM36.7151 16.144V25H36.0071C35.8431 25 35.7411 24.922 35.7011 24.766L35.5991 24.064C35.3391 24.372 35.0431 24.62 34.7111 24.808C34.3831 24.992 34.0031 25.084 33.5711 25.084C33.2231 25.084 32.9071 25.016 32.6231 24.88C32.3431 24.744 32.1031 24.546 31.9031 24.286C31.7031 24.022 31.5491 23.696 31.4411 23.308C31.3331 22.92 31.2791 22.474 31.2791 21.97C31.2791 21.518 31.3391 21.098 31.4591 20.71C31.5791 20.322 31.7531 19.986 31.9811 19.702C32.2091 19.418 32.4851 19.196 32.8091 19.036C33.1331 18.872 33.4991 18.79 33.9071 18.79C34.2751 18.79 34.5871 18.85 34.8431 18.97C35.1031 19.09 35.3351 19.26 35.5391 19.48V16.144H36.7151ZM42.2774 20.38C42.0854 20.128 41.8774 19.952 41.6534 19.852C41.4334 19.752 41.1854 19.702 40.9094 19.702C40.3734 19.702 39.9574 19.896 39.6614 20.284C39.3694 20.668 39.2234 21.23 39.2234 21.97C39.2234 22.358 39.2554 22.69 39.3194 22.966C39.3874 23.238 39.4834 23.462 39.6074 23.638C39.7354 23.81 39.8914 23.938 40.0754 24.022C40.2594 24.102 40.4674 24.142 40.6994 24.142C41.0394 24.142 41.3334 24.066 41.5814 23.914C41.8294 23.762 42.0614 23.548 42.2774 23.272V20.38ZM43.4534 16.144V25H42.7454C42.5814 25 42.4794 24.922 42.4394 24.766L42.3374 24.064C42.0774 24.372 41.7814 24.62 41.4494 24.808C41.1214 24.992 40.7414 25.084 40.3094 25.084C39.9614 25.084 39.6454 25.016 39.3614 24.88C39.0814 24.744 38.8414 24.546 38.6414 24.286C38.4414 24.022 38.2874 23.696 38.1794 23.308C38.0714 22.92 38.0174 22.474 38.0174 21.97C38.0174 21.518 38.0774 21.098 38.1974 20.71C38.3174 20.322 38.4914 19.986 38.7194 19.702C38.9474 19.418 39.2234 19.196 39.5474 19.036C39.8714 18.872 40.2374 18.79 40.6454 18.79C41.0134 18.79 41.3254 18.85 41.5814 18.97C41.8414 19.09 42.0734 19.26 42.2774 19.48V16.144H43.4534Z" fill="white"/>
</svg>
