<svg width="24" height="24" viewBox="0 0 24 24" fill="none" xmlns="http://www.w3.org/2000/svg">
<mask id="mask0_1054_7190" style="mask-type:alpha" maskUnits="userSpaceOnUse" x="0" y="0" width="24" height="24">
<rect width="24" height="24" fill="#D9D9D9"/>
</mask>
<g mask="url(#mask0_1054_7190)">
<path d="M4.5 20.5V19H19.5V20.5H4.5ZM8.0673 16.6153C7.08268 16.6153 6.24198 16.2717 5.5452 15.5846C4.8484 14.8974 4.5 14.0679 4.5 13.0961V3.5H19.6538C20.1615 3.5 20.5961 3.67661 20.9576 4.02982C21.3192 4.38302 21.5 4.81218 21.5 5.3173V7.93265C21.5 8.43778 21.3192 8.86695 20.9576 9.22015C20.5961 9.57335 20.1615 9.74995 19.6538 9.74995H17.6538V13.0961C17.6538 14.0679 17.3054 14.8974 16.6086 15.5846C15.9118 16.2717 15.0711 16.6153 14.0865 16.6153H8.0673ZM8.0673 15.1154H14.0865C14.655 15.1154 15.1417 14.9173 15.5465 14.5211C15.9514 14.1249 16.1538 13.6486 16.1538 13.0923V4.99998H5.99997V13.0959C5.99997 13.6525 6.2024 14.1282 6.60725 14.5231C7.0121 14.9179 7.49878 15.1154 8.0673 15.1154ZM17.6538 8.25H19.6538C19.75 8.25 19.8317 8.21955 19.899 8.15865C19.9663 8.09775 20 8.02242 20 7.93265V5.3173C20 5.22755 19.9663 5.15223 19.899 5.09133C19.8317 5.03043 19.75 4.99998 19.6538 4.99998H17.6538V8.25ZM8.0673 15.1154H5.99997H16.1538H8.0673Z" fill="#090C49"/>
</g>
</svg>
