<svg width="32" height="33" viewBox="0 0 32 33" fill="none" xmlns="http://www.w3.org/2000/svg">
<circle cx="15.7143" cy="16.5715" r="15.2143" fill="#F1F7FF" stroke="#090C49"/>
<mask id="mask0_76_3421" style="mask-type:alpha" maskUnits="userSpaceOnUse" x="7" y="8" width="17" height="17">
<rect x="7.39502" y="8.2522" width="16.2689" height="16.2689" fill="#090C49"/>
</mask>
<g mask="url(#mask0_76_3421)">
<path d="M15.0212 16.8949H16.038H18.7495V15.8782H16.038H15.0212H12.3097V16.8949H15.0212ZM15.5307 22.8263C14.6401 22.8263 13.8029 22.6573 13.0192 22.3192C12.2354 21.9812 11.5537 21.5225 10.974 20.943C10.3942 20.3635 9.93529 19.6821 9.59711 18.8987C9.25893 18.1154 9.08984 17.2783 9.08984 16.3877C9.08984 15.497 9.25886 14.6598 9.59689 13.8761C9.93492 13.0924 10.3937 12.4106 10.9731 11.8309C11.5526 11.2512 12.234 10.7922 13.0174 10.454C13.8008 10.1159 14.6378 9.94678 15.5285 9.94678C16.4191 9.94678 17.2563 10.1158 18.04 10.4538C18.8238 10.7919 19.5055 11.2506 20.0852 11.8301C20.665 12.4096 21.1239 13.091 21.4621 13.8743C21.8003 14.6577 21.9694 15.4947 21.9694 16.3854C21.9694 17.2761 21.8003 18.1133 21.4623 18.897C21.1243 19.6807 20.6655 20.3624 20.0861 20.9422C19.5066 21.5219 18.8252 21.9809 18.0418 22.319C17.2584 22.6572 16.4214 22.8263 15.5307 22.8263ZM15.5296 21.8095C17.0435 21.8095 18.3258 21.2842 19.3765 20.2335C20.4272 19.1828 20.9526 17.9004 20.9526 16.3865C20.9526 14.8726 20.4272 13.5903 19.3765 12.5396C18.3258 11.4889 17.0435 10.9636 15.5296 10.9636C14.0157 10.9636 12.7334 11.4889 11.6827 12.5396C10.632 13.5903 10.1066 14.8726 10.1066 16.3865C10.1066 17.9004 10.632 19.1828 11.6827 20.2335C12.7334 21.2842 14.0157 21.8095 15.5296 21.8095Z" fill="#090C49"/>
</g>
</svg>
