<svg width="33" height="33" viewBox="0 0 33 33" fill="none" xmlns="http://www.w3.org/2000/svg">
<circle cx="16.4286" cy="16.5715" r="15.2143" fill="#F1F7FF" stroke="#090C49"/>
<mask id="mask0_76_3416" style="mask-type:alpha" maskUnits="userSpaceOnUse" x="8" y="8" width="17" height="17">
<rect x="8.10938" y="8.2522" width="16.2689" height="16.2689" fill="#090C49"/>
</mask>
<g mask="url(#mask0_76_3416)">
<path d="M15.7356 19.6064H16.7523V16.8949H19.4638V15.8782H16.7523V13.1667H15.7356V15.8782H13.0241V16.8949H15.7356V19.6064ZM16.2451 22.8263C15.3544 22.8263 14.5172 22.6573 13.7335 22.3192C12.9498 21.9812 12.2681 21.5225 11.6883 20.943C11.1086 20.3635 10.6496 19.6821 10.3115 18.8987C9.97329 18.1154 9.8042 17.2783 9.8042 16.3877C9.8042 15.497 9.97322 14.6598 10.3112 13.8761C10.6493 13.0924 11.108 12.4106 11.6875 11.8309C12.267 11.2512 12.9484 10.7922 13.7318 10.454C14.5151 10.1159 15.3521 9.94678 16.2428 9.94678C17.1335 9.94678 17.9707 10.1158 18.7544 10.4538C19.5381 10.7919 20.2198 11.2506 20.7996 11.8301C21.3793 12.4096 21.8383 13.091 22.1765 13.8743C22.5146 14.6577 22.6837 15.4947 22.6837 16.3854C22.6837 17.2761 22.5147 18.1133 22.1767 18.897C21.8386 19.6807 21.3799 20.3624 20.8004 20.9422C20.2209 21.5219 19.5395 21.9809 18.7562 22.319C17.9728 22.6572 17.1358 22.8263 16.2451 22.8263ZM16.244 21.8095C17.7579 21.8095 19.0402 21.2842 20.0909 20.2335C21.1416 19.1828 21.6669 17.9004 21.6669 16.3865C21.6669 14.8726 21.1416 13.5903 20.0909 12.5396C19.0402 11.4889 17.7579 10.9636 16.244 10.9636C14.73 10.9636 13.4477 11.4889 12.397 12.5396C11.3463 13.5903 10.821 14.8726 10.821 16.3865C10.821 17.9004 11.3463 19.1828 12.397 20.2335C13.4477 21.2842 14.73 21.8095 16.244 21.8095Z" fill="#090C49"/>
</g>
</svg>
