<svg width="40" height="40" viewBox="0 0 40 40" fill="none" xmlns="http://www.w3.org/2000/svg">
<mask id="mask0_76_2662" style="mask-type:alpha" maskUnits="userSpaceOnUse" x="0" y="0" width="40" height="40">
<rect width="40" height="40" fill="#D9D9D9"/>
</mask>
<g mask="url(#mask0_76_2662)">
<path d="M12.1795 34.1668C11.3483 34.1668 10.6384 33.8724 10.0497 33.2838C9.46101 32.6951 9.16667 31.9852 9.16667 31.154V10.0002H7.5V7.50021H15V6.02588H25V7.50021H32.4999V10.0002H30.8333V31.154C30.8333 31.9959 30.5416 32.7085 29.9583 33.2918C29.3749 33.8751 28.6623 34.1668 27.8204 34.1668H12.1795ZM28.3333 10.0002H11.6666V31.154C11.6666 31.3035 11.7147 31.4264 11.8109 31.5226C11.907 31.6188 12.0299 31.6668 12.1795 31.6668H27.8204C27.9486 31.6668 28.0662 31.6134 28.173 31.5066C28.2799 31.3997 28.3333 31.2822 28.3333 31.154V10.0002ZM15.6731 28.3335H18.173V13.3335H15.6731V28.3335ZM21.8269 28.3335H24.3268V13.3335H21.8269V28.3335Z" fill="#090C49"/>
</g>
</svg>
