<svg width="24" height="24" viewBox="0 0 24 24" fill="none" xmlns="http://www.w3.org/2000/svg">
<path d="M8.72908 6.07886C8.72908 5.97866 8.8103 5.89744 8.9105 5.89744H10.6642C10.7644 5.89744 10.8457 5.97866 10.8457 6.07886V7.46976C10.8457 7.56996 10.7644 7.65118 10.6642 7.65118H8.9105C8.8103 7.65118 8.72908 7.56996 8.72908 7.46976V6.07886Z" fill="#090C49"/>
<path d="M12.3575 6.07886C12.3575 5.97866 12.4387 5.89744 12.5389 5.89744H14.2927C14.3929 5.89744 14.4741 5.97866 14.4741 6.07886V7.46976C14.4741 7.56996 14.3929 7.65118 14.2927 7.65118H12.5389C12.4387 7.65118 12.3575 7.56996 12.3575 7.46976V6.07886Z" fill="#090C49"/>
<path d="M8.72908 10.6587V17.8827L10.8457 18.7179V10.6587H12.3575V17.8827L14.4741 18.7179V10.6587H15.8805C17.0409 10.6587 17.9816 9.70805 17.9816 8.53537V7.34881H15.8805V8.53537H7.3832C6.22277 8.53537 5.28205 9.48601 5.28205 10.6587V12.1263H7.3832V10.6587H8.72908Z" fill="#090C49"/>
<path fill-rule="evenodd" clip-rule="evenodd" d="M12 1.84615C6.39219 1.84615 1.84615 6.39219 1.84615 12C1.84615 17.6078 6.39219 22.1538 12 22.1538C17.6078 22.1538 22.1538 17.6078 22.1538 12C22.1538 6.39219 17.6078 1.84615 12 1.84615ZM0 12C0 5.37258 5.37258 0 12 0C18.6274 0 24 5.37258 24 12C24 18.6274 18.6274 24 12 24C5.37258 24 0 18.6274 0 12Z" fill="#090C49"/>
</svg>
